<svg enable-background="new 0 0 512 512" viewBox="0 0 512 512" xmlns="http://www.w3.org/2000/svg"><path d="m298.6 322.7-56.4 67.7h-204c-8.1-13.2-15.1-27-20.7-41.6h164v-166.8zm-182.5 147.7h279.8c-40.2 26.2-88.3 41.6-139.9 41.6s-99.7-15.4-139.9-41.6zm65.3-414.3c-17.7 0-32 14.3-32 32s14.3 32 32 32 32-14.3 32-32-14.4-32-32-32zm162 46.3c-35.3 0-64 28.7-64 64s28.7 64 64 64 64-28.7 64-64-28.6-64-64-64zm-162 49.7-164 196.7c-11.3-28.8-17.4-60-17.4-92.8 0-141.4 114.6-256 256-256s256 114.6 256 256c0 78.2-35.1 148.2-90.4 195.2h-331.2c-14.5-12.4-27.6-26.4-39.2-41.6h292.4v-110.8l92.3 110.8h25l-117.5-140.8-32.4 38.9z"/></svg>